# xmcd
#
# Track frame offsets:
#	150
#	20256
#	35056
#	45435
#	56817
#	72877
#	89575
#	100852
#	113612
#	127630
#	139532
#	149389
#
# Disc length: 2197 seconds
#
# Revision: 1
# Processed by: cddbd v1.5.2PL0 Copyright (c) Steve Scherf et al.
# Submitted via: audiograbber 1.83.01
#
DISCID=9d08930c
DTITLE=Gildo de Freitas - O Trovador dos Pampas
DYEAR=1900
DGENRE=Gaúcho
TTITLE0=História dos passarinhos
TTITLE1=Carta pra mamãe
TTITLE2=Trança de china
TTITLE3=Percorrendo o Rio Grande
TTITLE4=Saudade de Alegrete
TTITLE5=Campereada de amor
TTITLE6=Briga no carreiramento
TTITLE7=Prova de amor
TTITLE8=Acordeona
TTITLE9=Estrada da vida
TTITLE10=Que jeito tem a Mariana
TTITLE11=A grande perda do Brasil
EXTD=
EXTT0=
EXTT1=
EXTT2=
EXTT3=
EXTT4=
EXTT5=
EXTT6=
EXTT7=
EXTT8=
EXTT9=
EXTT10=
EXTT11=
PLAYORDER=
